<svg xmlns="http://www.w3.org/2000/svg" viewBox="0 0 512 512"><!--! Goal Skeleton --><path d="M374.2.7c-3.5 1.4-3.7 4.1-4.2 56.6l-.5 51.9-30 16.3c-16.5 9-30.3 16.1-30.7 15.8-.5-.2-.8-1.1-.8-1.9 0-2.9-11.9-25-15.2-28.1-7.8-7.5-17.5-8.6-29.1-3.1-12.7 6.1-18.7 15-17.4 26 .8 6.2 11.8 27.8 16.1 31.6l3.1 2.7-2.6 5.4c-3.9 7.8-8.3 23.3-7.5 26.5.4 1.7 1.9 3.3 4 4.2 2.9 1.4 3.7 1.5 6.2.3 2.4-1.2 3.3-2.7 5.2-8.9 4-12.8 5.4-16.2 8.1-19.1 1.5-1.7 23.4-14.2 51.1-29.2 52.8-28.7 50.9-28 47.5-17.6-3.2 9.5-8.4 13.6-48 37.5-19.8 11.9-36.6 22.4-37.2 23.2-.7.9-1.3 3-1.3 4.8 0 3.9 4.2 7.8 7.7 7.1 1.3-.2 2.3.1 2.2.7 0 .6-2.8 9.2-6.2 19l-6.2 18-16.4 6.8c-9.1 3.7-16.7 6.6-16.9 6.3-.2-.2 1.3-6.5 3.4-13.9 3.1-11.4 3.5-14 2.6-16.1-2.2-4.8-9.9-5.5-12.7-1.1-.7 1.1-3.9 11.1-7 22.1-6.2 21.8-6.1 20.8-8.4 66.5l-.9 18.5-16.2 34c-9 18.7-16.7 34.6-17.3 35.2-.7.9-5.1 1.3-15.6 1.3-13.8 0-15 .2-19.9 2.6-10.9 5.4-14.2 12.7-14.2 31.6V447l-2.6-1c-1.5-.6-17.7-1-39-1-40.6 0-40.7 0-47.8 6.8-6.8 6.5-7.6 9.4-7.6 28.4V497H41.5c-9.9 0-10.7.2-13 2.5-3.2 3.1-3.2 6.9 0 10l2.4 2.5h447.8l2.1-2.3c2.9-3.1 2.9-7.7-.1-10.5-2.1-2-3.4-2.2-13.5-2.2H456V297.4l-2.6-5.2c-1.4-2.9-4.2-6.5-6.2-8.2-6.6-5.5-10-6-37.4-6H385V148.5l4-8c4.7-9.5 6.3-18.2 5.1-27.1-1.1-7.8-2.3-9.9-6.1-11.2-2.9-1.1-3-1.3-3-7.6V88h46c51.5 0 51.3 0 54.4-6.5 3.2-6.6 1.5-9.6-12.4-21.6-9.1-7.9-11.7-10.6-10.7-11.4.7-.6 6.1-5.2 12-10.4 12.3-10.7 14.2-14.2 11.3-20.2-3.1-6.6-1.3-6.4-53.3-6.7l-47.3-.3V7.6c0-5.4-5.6-9-10.8-6.9zM464 27c0 .5-.3 1-.7 1-.5 0-4.8 3.7-9.6 8.3-8 7.4-8.9 8.6-9.4 12.6l-.6 4.4 10.4 9.9 10.4 9.8-39.5-.2-39.5-.3-.3-22c-.1-12.1 0-22.5.2-23.2.7-1.6 78.6-1.9 78.6-.3zm-181.1 95.6c3.3 4.2 11.1 20.1 11.1 22.6 0 3.5-2.6 6.6-8 9.3-5.5 2.8-9.6 3.2-12.5 1.1-1.1-.8-4.4-6.3-7.4-12.4-6.1-12.4-6.2-14.5-.6-18.8 7.2-5.5 14-6.2 17.4-1.8zm87.1 96.9V278h-2.7c-4 0-12.3 4.2-16 8-6.6 6.8-6.8 7.6-7.1 38.7-.2 15.6-.6 28.3-1 28.3s-2.4-.5-4.4-1c-3.3-1-3.7-1.4-3.3-3.8 1.5-8.2 5.6-44.5 5.6-49.3.1-8.3-2.6-12.7-21.5-35.1l-16.5-19.6 9-27 9-27 18.7-11.3c10.3-6.2 21-12.8 23.7-14.5 2.8-1.8 5.3-3.3 5.8-3.3.4-.1.7 26.2.7 58.4zM278.4 294c-5.4 29.8-6.9 36-8.9 39-1.4 1.9-13.2 17.7-26.3 35-20.8 27.6-27.2 35-27.2 31.2 0-.6 6.8-15.3 15-32.7 17.3-36.4 16.1-31.3 18.1-71 .6-12.7 1.4-23.1 1.8-23.3 3-1.4 33.7-13.9 33.8-13.8.1.1-2.7 16.1-6.3 35.6zm33.1-16.4c13.7 16.2 14.5 17.4 14.5 22.5 0 3.8-4.1 39.4-5.5 47.6-.5 2.7-1.1 3.3-3 3.3-1.4 0-2.5-.1-2.5-.3 0-.1-1.1-10.3-2.4-22.7-1.6-15.6-2.8-23.5-4-25.8-1.1-2-4.2-5-8-7.4l-6.3-4 1.2-6.6c.7-3.7 1.8-10 2.5-14.1 1-5.9 1.5-7.2 2.4-6 .6.8 5.6 6.9 11.1 13.5zm123.8 16.5c1.2.6 3 2.1 3.9 3.3 1.6 2 1.8 8.8 1.8 100.8V497h-82v-23.1c0-27.2-.5-28.9-7.7-28.9-2 0-4.1.8-5.3 2-1.9 1.9-2 3.3-2 26v24h-83.1l.3-61.7c.3-67.9 0-64.8 6.4-67.8 4.7-2.2 66.1-2.2 70.4 0 5.5 2.8 6 5.2 6 28.5 0 21.1 0 21.1 2.5 23.5 3.1 3.2 6.9 3.2 10 0l2.5-2.4V299.8l3.4-3.4 3.4-3.4h33.7c22.8 0 34.3.4 35.8 1.1zm-141.2 14.2c1.3 1 2.1 5.7 3.7 21.7 1.1 11.3 1.9 20.6 1.7 20.8-.1.1-5.7.1-12.3 0l-12.1-.3 4.9-6.5c5.3-7 6.8-11.5 9.6-27.3 1-5.3 2-9.7 2.3-9.7.3 0 1.3.6 2.2 1.3zM246 395.6v5.6l-3.2-.7c-1.8-.4-3.5-.9-3.7-1.1-.3-.3 6-9.4 6.6-9.4.2 0 .3 2.5.3 5.6zm-2.9 22.3 2.9 2.9V497h-82v-37.1c0-38.5.1-39.7 4.4-43.1 1.9-1.6 5.4-1.8 36.9-1.8h34.9l2.9 2.9zm-99 43.1c4 2.2 4.9 6.1 4.9 21.5V497H67v-31.2l2.9-2.9 2.9-2.9h34.7c21.8 0 35.3.4 36.6 1z"/></svg>