<?xml version="1.0" standalone="no"?>
<!DOCTYPE svg PUBLIC "-//W3C//DTD SVG 20010904//EN"
 "http://www.w3.org/TR/2001/REC-SVG-20010904/DTD/svg10.dtd">
<svg version="1.0" xmlns="http://www.w3.org/2000/svg"
 width="512.000000pt" height="512.000000pt" viewBox="0 0 512.000000 512.000000"
 preserveAspectRatio="xMidYMid meet">

<g transform="translate(0.000000,512.000000) scale(0.100000,-0.100000)"
fill="#000000" stroke="none">
<path d="M3742 5113 c-35 -14 -37 -41 -42 -566 l-5 -519 -300 -163 c-165 -90
-303 -161 -307 -158 -5 2 -8 11 -8 19 0 29 -119 250 -152 281 -78 75 -175 86
-291 31 -127 -61 -187 -150 -174 -260 8 -62 118 -278 161 -316 l31 -27 -26
-54 c-39 -78 -83 -233 -75 -265 4 -17 19 -33 40 -42 29 -14 37 -15 62 -3 24
12 33 27 52 89 40 128 54 162 81 191 15 17 234 142 511 292 528 287 509 280
475 176 -32 -95 -84 -136 -480 -375 -198 -119 -366 -224 -372 -232 -7 -9 -13
-30 -13 -48 0 -39 42 -78 77 -71 13 2 23 -1 22 -7 0 -6 -28 -92 -62 -190 l-62
-180 -164 -68 c-91 -37 -167 -66 -169 -63 -2 2 13 65 34 139 31 114 35 140 26
161 -22 48 -99 55 -127 11 -7 -11 -39 -111 -70 -221 -62 -218 -61 -208 -84
-665 l-9 -185 -162 -340 c-90 -187 -167 -346 -173 -352 -7 -9 -51 -13 -156
-13 -138 0 -150 -2 -199 -26 -109 -54 -142 -127 -142 -316 l0 -128 -26 10
c-15 6 -177 10 -390 10 -406 0 -407 0 -478 -68 -68 -65 -76 -94 -76 -284 l0
-168 -105 0 c-99 0 -107 -2 -130 -25 -32 -31 -32 -69 0 -100 l24 -25 2239 0
2239 0 21 23 c29 31 29 77 -1 105 -21 20 -34 22 -135 22 l-112 0 0 998 0 998
-26 52 c-14 29 -42 65 -62 82 -66 55 -100 60 -374 60 l-248 0 0 647 0 648 40
80 c47 95 63 182 51 271 -11 78 -23 99 -61 112 -29 11 -30 13 -30 76 l0 66
460 0 c515 0 513 0 544 65 32 66 15 96 -124 216 -91 79 -117 106 -107 114 7 6
61 52 120 104 123 107 142 142 113 202 -31 66 -13 64 -533 67 l-473 3 0 33 c0
54 -56 90 -108 69z m898 -263 c0 -5 -3 -10 -7 -10 -5 0 -48 -37 -96 -83 -80
-74 -89 -86 -94 -126 l-6 -44 104 -99 104 -98 -395 2 -395 3 -3 220 c-1 121 0
225 2 232 7 16 786 19 786 3z m-1811 -956 c33 -42 111 -201 111 -226 0 -35
-26 -66 -80 -93 -55 -28 -96 -32 -125 -11 -11 8 -44 63 -74 124 -61 124 -62
145 -6 188 72 55 140 62 174 18z m871 -969 l0 -585 -27 0 c-40 0 -123 -42
-160 -80 -66 -68 -68 -76 -71 -387 -2 -156 -6 -283 -10 -283 -4 0 -24 5 -44
10 -33 10 -37 14 -33 38 15 82 56 445 56 493 1 83 -26 127 -215 351 l-165 196
90 270 90 270 187 113 c103 62 210 128 237 145 28 18 53 33 58 33 4 1 7 -262
7 -584z m-916 -745 c-54 -298 -69 -360 -89 -390 -14 -19 -132 -177 -263 -350
-208 -276 -272 -350 -272 -312 0 6 68 153 150 327 173 364 161 313 181 710 6
127 14 231 18 233 30 14 337 139 338 138 1 -1 -27 -161 -63 -356z m331 164
c137 -162 145 -174 145 -225 0 -38 -41 -394 -55 -476 -5 -27 -11 -33 -30 -33
-14 0 -25 1 -25 3 0 1 -11 103 -24 227 -16 156 -28 235 -40 258 -11 20 -42 50
-80 74 l-63 40 12 66 c7 37 18 100 25 141 10 59 15 72 24 60 6 -8 56 -69 111
-135z m1238 -165 c12 -6 30 -21 39 -33 16 -20 18 -88 18 -1008 l0 -988 -410 0
-410 0 0 231 c0 272 -5 289 -77 289 -20 0 -41 -8 -53 -20 -19 -19 -20 -33 -20
-260 l0 -240 -415 0 -416 0 3 617 c3 679 0 648 64 678 47 22 661 22 704 0 55
-28 60 -52 60 -285 0 -211 0 -211 25 -235 31 -32 69 -32 100 0 l25 24 0 587 0
586 34 34 34 34 337 0 c228 0 343 -4 358 -11z m-1412 -142 c13 -10 21 -57 37
-217 11 -113 19 -206 17 -208 -1 -1 -57 -1 -123 0 l-121 3 49 65 c53 70 68
115 96 273 10 53 20 97 23 97 3 0 13 -6 22 -13z m-481 -873 l0 -56 -32 7 c-18
4 -35 9 -37 11 -3 3 60 94 66 94 2 0 3 -25 3 -56z m-29 -223 l29 -29 0 -381 0
-381 -410 0 -410 0 0 371 c0 385 1 397 44 431 19 16 54 18 369 18 l349 0 29
-29z m-990 -431 c40 -22 49 -61 49 -215 l0 -145 -410 0 -410 0 0 156 0 156 29
29 29 29 347 0 c218 0 353 -4 366 -10z"/>
</g>
</svg>
