<!-- Generated by IcoMoon.io -->
<svg version="1.1" xmlns="http://www.w3.org/2000/svg" width="32" height="32" viewBox="0 0 32 32">
<path d="M23.387 0.044c-0.219 0.087-0.231 0.256-0.262 3.538l-0.031 3.244-1.875 1.019c-1.031 0.563-1.894 1.006-1.919 0.988-0.031-0.012-0.050-0.069-0.050-0.119 0-0.181-0.744-1.563-0.95-1.756-0.488-0.469-1.094-0.537-1.819-0.194-0.794 0.381-1.169 0.938-1.088 1.625 0.050 0.387 0.737 1.738 1.006 1.975l0.194 0.169-0.163 0.338c-0.244 0.488-0.519 1.456-0.469 1.656 0.025 0.106 0.119 0.206 0.25 0.262 0.181 0.088 0.231 0.094 0.387 0.019 0.15-0.075 0.206-0.169 0.325-0.556 0.25-0.8 0.337-1.012 0.506-1.194 0.094-0.106 1.462-0.887 3.194-1.825 3.3-1.794 3.181-1.75 2.969-1.1-0.2 0.594-0.525 0.85-3 2.344-1.238 0.744-2.288 1.4-2.325 1.45-0.044 0.056-0.081 0.188-0.081 0.3 0 0.244 0.262 0.488 0.481 0.444 0.081-0.012 0.144 0.006 0.137 0.044 0 0.037-0.175 0.575-0.387 1.188l-0.387 1.125-1.025 0.425c-0.569 0.231-1.044 0.412-1.056 0.394-0.012-0.012 0.081-0.406 0.213-0.869 0.194-0.713 0.219-0.875 0.163-1.006-0.137-0.3-0.619-0.344-0.794-0.069-0.044 0.069-0.244 0.694-0.438 1.381-0.387 1.362-0.381 1.3-0.525 4.156l-0.056 1.156-1.012 2.125c-0.563 1.169-1.044 2.163-1.081 2.2-0.044 0.056-0.319 0.081-0.975 0.081-0.863 0-0.938 0.012-1.244 0.163-0.681 0.337-0.887 0.794-0.887 1.975v0.8l-0.162-0.063c-0.094-0.038-1.106-0.063-2.438-0.063-2.537 0-2.544 0-2.987 0.425-0.425 0.406-0.475 0.587-0.475 1.775v1.050h-0.656c-0.619 0-0.669 0.012-0.813 0.156-0.2 0.194-0.2 0.431 0 0.625l0.15 0.156h27.987l0.131-0.144c0.181-0.194 0.181-0.481-0.006-0.656-0.131-0.125-0.212-0.137-0.844-0.137h-0.7v-12.475l-0.163-0.325c-0.087-0.181-0.262-0.406-0.387-0.512-0.413-0.344-0.625-0.375-2.337-0.375h-1.55v-8.094l0.25-0.5c0.294-0.594 0.394-1.138 0.319-1.694-0.069-0.487-0.144-0.619-0.381-0.7-0.181-0.069-0.188-0.081-0.188-0.475v-0.412h2.875c3.219 0 3.206 0 3.4-0.406 0.2-0.412 0.094-0.6-0.775-1.35-0.569-0.494-0.731-0.663-0.669-0.712 0.044-0.038 0.381-0.325 0.75-0.65 0.769-0.669 0.887-0.887 0.706-1.262-0.194-0.412-0.081-0.4-3.331-0.419l-2.956-0.019v-0.206c0-0.338-0.35-0.563-0.675-0.431zM29 1.688c0 0.031-0.019 0.063-0.044 0.063-0.031 0-0.3 0.231-0.6 0.519-0.5 0.462-0.556 0.538-0.587 0.788l-0.038 0.275 0.65 0.619 0.65 0.613-2.469-0.013-2.469-0.019-0.019-1.375c-0.006-0.756 0-1.406 0.012-1.45 0.044-0.1 4.912-0.119 4.912-0.019zM17.681 7.662c0.206 0.263 0.694 1.256 0.694 1.412 0 0.219-0.163 0.412-0.5 0.581-0.344 0.175-0.6 0.2-0.781 0.069-0.069-0.050-0.275-0.394-0.462-0.775-0.381-0.775-0.387-0.906-0.038-1.175 0.45-0.344 0.875-0.388 1.087-0.112zM23.125 13.719v3.656h-0.169c-0.25 0-0.769 0.262-1 0.5-0.413 0.425-0.425 0.475-0.444 2.419-0.012 0.975-0.038 1.769-0.063 1.769s-0.15-0.031-0.275-0.063c-0.206-0.063-0.231-0.087-0.206-0.238 0.094-0.512 0.35-2.781 0.35-3.081 0.006-0.519-0.163-0.794-1.344-2.194l-1.031-1.225 1.125-3.375 1.169-0.706c0.644-0.387 1.313-0.8 1.481-0.906 0.175-0.113 0.331-0.206 0.363-0.206 0.025-0.006 0.044 1.637 0.044 3.65zM17.4 18.375c-0.337 1.863-0.431 2.25-0.556 2.438-0.087 0.119-0.825 1.106-1.644 2.188-1.3 1.725-1.7 2.188-1.7 1.95 0-0.038 0.425-0.956 0.938-2.044 1.081-2.275 1.006-1.956 1.131-4.438 0.037-0.794 0.088-1.444 0.113-1.456 0.188-0.087 2.106-0.869 2.112-0.863s-0.169 1.006-0.394 2.225zM19.469 17.35c0.856 1.012 0.906 1.087 0.906 1.406 0 0.238-0.256 2.462-0.344 2.975-0.031 0.169-0.069 0.206-0.188 0.206-0.087 0-0.156-0.006-0.156-0.019 0-0.006-0.069-0.644-0.15-1.419-0.1-0.975-0.175-1.469-0.25-1.613-0.069-0.125-0.262-0.313-0.5-0.462l-0.394-0.25 0.075-0.413c0.044-0.231 0.113-0.625 0.156-0.881 0.063-0.369 0.094-0.45 0.15-0.375 0.038 0.050 0.35 0.431 0.694 0.844zM27.206 18.381c0.075 0.038 0.188 0.131 0.244 0.206 0.1 0.125 0.113 0.55 0.113 6.3v6.175h-5.125v-1.444c0-1.7-0.031-1.806-0.481-1.806-0.125 0-0.256 0.050-0.331 0.125-0.119 0.119-0.125 0.206-0.125 1.625v1.5h-5.194l0.019-3.856c0.019-4.244 0-4.050 0.4-4.238 0.294-0.137 4.131-0.137 4.4 0 0.344 0.175 0.375 0.325 0.375 1.781 0 1.319 0 1.319 0.156 1.469 0.194 0.2 0.431 0.2 0.625 0l0.156-0.15v-7.331l0.425-0.425h2.106c1.425 0 2.144 0.025 2.238 0.069zM18.381 19.269c0.081 0.063 0.131 0.356 0.231 1.356 0.069 0.706 0.119 1.288 0.106 1.3-0.006 0.006-0.356 0.006-0.769 0l-0.756-0.019 0.306-0.406c0.331-0.438 0.425-0.719 0.6-1.706 0.063-0.331 0.125-0.606 0.144-0.606s0.081 0.038 0.137 0.081zM15.375 24.725v0.35l-0.2-0.044c-0.113-0.025-0.219-0.056-0.231-0.069-0.019-0.019 0.375-0.587 0.412-0.587 0.012 0 0.019 0.156 0.019 0.35zM15.194 26.119l0.181 0.181v4.762h-5.125v-2.319c0-2.406 0.006-2.481 0.275-2.694 0.119-0.1 0.338-0.113 2.306-0.113h2.181l0.181 0.181zM9.006 28.813c0.25 0.137 0.306 0.381 0.306 1.344v0.906h-5.125v-1.95l0.362-0.363h2.169c1.363 0 2.206 0.025 2.287 0.063z"></path>
</svg>
