<svg aria-hidden="true" style="position: absolute; width: 0; height: 0; overflow: hidden;" version="1.1" xmlns="http://www.w3.org/2000/svg" xmlns:xlink="http://www.w3.org/1999/xlink">
<defs>
<symbol id="icon-document-edit" viewBox="0 0 32 32">
<path d="M26.443 12.15l-2.6-2.6-11.292 11.294 2.606 2.606 11.286-11.3zM27.15 11.443l1.729-1.731c0.39-0.39 0.387-1.025-0.005-1.416l-1.18-1.177c-0.393-0.392-1.025-0.395-1.417-0.003l-1.727 1.728 2.599 2.599zM11.904 21.611l-0.64 3.113 3.135-0.617-2.495-2.495zM22 18v10.003c0 1.107-0.894 1.997-1.997 1.997h-15.005c-1.107 0-1.997-0.899-1.997-2.007v-22.985c0-1.109 0.899-2.007 2.009-2.007h9.991v6.002c0 1.111 0.898 1.998 2.006 1.998h3.994l4.58-4.58c0.793-0.793 2.051-0.788 2.83-0.010l1.18 1.179c0.776 0.776 0.775 2.046-0.010 2.83l-7.58 7.58zM16 3v5.997c0 0.554 0.451 1.003 0.991 1.003h5.009l-6-7z"></path>
</symbol>
<symbol id="icon-document-edit1" viewBox="0 0 32 32">
<path d="M26.443 12.15l-11.286 11.3-2.606-2.606 11.292-11.294 2.6 2.6zM27.15 11.443l-2.599-2.599 1.727-1.728c0.391-0.391 1.024-0.388 1.417 0.003l1.18 1.177c0.392 0.391 0.395 1.025 0.005 1.416l-1.729 1.731zM11.904 21.611l2.495 2.495-3.135 0.617 0.64-3.113zM22 10v0l-6-7h-10.997c-1.106 0-2.003 0.898-2.003 2.007v22.985c0 1.109 0.891 2.007 1.997 2.007h15.005c1.103 0 1.997-0.898 1.997-1.991v-10.009l7.58-7.58c0.784-0.784 0.786-2.054 0.010-2.83l-1.18-1.179c-0.779-0.779-2.037-0.783-2.83 0.010l-3.58 3.58zM21 19v9.007c0 0.548-0.448 0.993-1 0.993h-15c-0.545 0-1-0.446-1-0.995v-23.009c0-0.54 0.446-0.995 0.996-0.995h10.004v4.994c0 1.119 0.895 2.006 1.998 2.006h4.002l-10 10-1 5 5-1 6-6zM16 4.5l4.7 5.5h-3.703c-0.546 0-0.997-0.452-0.997-1.009v-4.491z"></path>
</symbol>
<symbol id="icon-arrow-left-solid" viewBox="0 0 28 32">
<path d="M0.588 14.588c-0.781 0.781-0.781 2.050 0 2.831l10 10c0.781 0.781 2.050 0.781 2.831 0s0.781-2.050 0-2.831l-6.594-6.587h19.175c1.106 0 2-0.894 2-2s-0.894-2-2-2h-19.169l6.581-6.588c0.781-0.781 0.781-2.050 0-2.831s-2.050-0.781-2.831 0l-10 10z"></path>
</symbol>
<symbol id="icon-circle-plus-solid" viewBox="0 0 32 32">
<path d="M16 32c8.837 0 16-7.163 16-16s-7.163-16-16-16v0c-8.837 0-16 7.163-16 16s7.163 16 16 16v0zM14.5 21.5v-4h-4c-0.831 0-1.5-0.669-1.5-1.5s0.669-1.5 1.5-1.5h4v-4c0-0.831 0.669-1.5 1.5-1.5s1.5 0.669 1.5 1.5v4h4c0.831 0 1.5 0.669 1.5 1.5s-0.669 1.5-1.5 1.5h-4v4c0 0.831-0.669 1.5-1.5 1.5s-1.5-0.669-1.5-1.5z"></path>
</symbol>
<symbol id="icon-plus-solid" viewBox="0 0 28 32">
<path d="M16 5c0-1.106-0.894-2-2-2s-2 0.894-2 2v9h-9c-1.106 0-2 0.894-2 2s0.894 2 2 2h9v9c0 1.106 0.894 2 2 2s2-0.894 2-2v-9h9c1.106 0 2-0.894 2-2s-0.894-2-2-2h-9v-9z"></path>
</symbol>
<symbol id="icon-square-plus-solid" viewBox="0 0 28 32">
<path d="M4 2c-2.206 0-4 1.794-4 4v20c0 2.206 1.794 4 4 4h20c2.206 0 4-1.794 4-4v-20c0-2.206-1.794-4-4-4h-20zM12.5 21.5v-4h-4c-0.831 0-1.5-0.669-1.5-1.5s0.669-1.5 1.5-1.5h4v-4c0-0.831 0.669-1.5 1.5-1.5s1.5 0.669 1.5 1.5v4h4c0.831 0 1.5 0.669 1.5 1.5s-0.669 1.5-1.5 1.5h-4v4c0 0.831-0.669 1.5-1.5 1.5s-1.5-0.669-1.5-1.5z"></path>
</symbol>
<symbol id="icon-arrow-right-from-bracket" viewBox="0 0 32 32">
<path d="M31.413 17.413c0.781-0.781 0.781-2.050 0-2.831l-8-8c-0.781-0.781-2.050-0.781-2.831 0s-0.781 2.050 0 2.831l4.588 4.588h-13.169c-1.106 0-2 0.894-2 2s0.894 2 2 2h13.169l-4.587 4.587c-0.781 0.781-0.781 2.050 0 2.831s2.050 0.781 2.831 0l8-8zM10 6c1.106 0 2-0.894 2-2s-0.894-2-2-2h-4c-3.313 0-6 2.688-6 6v16c0 3.313 2.688 6 6 6h4c1.106 0 2-0.894 2-2s-0.894-2-2-2h-4c-1.106 0-2-0.894-2-2v-16c0-1.106 0.894-2 2-2h4z"></path>
</symbol>
<symbol id="icon-arrow-right-to-bracket" viewBox="0 0 32 32">
<path d="M22 6h4c1.106 0 2 0.894 2 2v16c0 1.106-0.894 2-2 2h-4c-1.106 0-2 0.894-2 2s0.894 2 2 2h4c3.313 0 6-2.688 6-6v-16c0-3.313-2.688-6-6-6h-4c-1.106 0-2 0.894-2 2s0.894 2 2 2zM21.413 17.413c0.781-0.781 0.781-2.050 0-2.831l-8-8c-0.781-0.781-2.050-0.781-2.831 0s-0.781 2.050 0 2.831l4.588 4.588h-13.169c-1.106 0-2 0.894-2 2s0.894 2 2 2h13.169l-4.588 4.587c-0.781 0.781-0.781 2.050 0 2.831s2.050 0.781 2.831 0l8-8z"></path>
</symbol>
<symbol id="icon-user" viewBox="0 0 28 32">
<path d="M19 8c0-2.761-2.239-5-5-5s-5 2.239-5 5v0c0 2.761 2.239 5 5 5s5-2.239 5-5v0zM6 8c0-4.418 3.582-8 8-8s8 3.582 8 8v0c0 4.418-3.582 8-8 8s-8-3.582-8-8v0zM3.081 29h21.844c-0.556-3.956-3.956-7-8.063-7h-5.713c-4.106 0-7.506 3.044-8.063 7zM0 30.144c0-6.156 4.987-11.144 11.144-11.144h5.713c6.156 0 11.144 4.988 11.144 11.144 0 1.025-0.831 1.856-1.856 1.856h-24.288c-1.025 0-1.856-0.831-1.856-1.856z"></path>
</symbol>
<symbol id="icon-user1" viewBox="0 0 32 32">
<path d="M16 2.667c3.676 0 6.667 2.991 6.667 6.668 0 3.675-2.991 6.667-6.667 6.667s-6.667-2.992-6.667-6.667c0-3.677 2.991-6.668 6.667-6.668zM16 0c-5.155 0-9.333 4.179-9.333 9.335 0 5.153 4.179 9.333 9.333 9.333s9.333-4.18 9.333-9.333c0-5.156-4.179-9.335-9.333-9.335zM24.492 17.804c-0.663 0.664-1.409 1.241-2.211 1.736 3.829 2.499 5.837 6.777 6.629 9.795h-25.849c0.763-3.053 2.744-7.337 6.631-9.811-0.804-0.499-1.549-1.081-2.211-1.749-5.677 4.096-7.481 11.341-7.481 14.225h32c0-2.856-1.92-10.076-7.508-14.196z"></path>
</symbol>
<symbol id="icon-goal-skeleton" viewBox="0 0 32 32">
<path d="M23.387 0.044c-0.219 0.087-0.231 0.256-0.262 3.538l-0.031 3.244-1.875 1.019c-1.031 0.563-1.894 1.006-1.919 0.988-0.031-0.012-0.050-0.069-0.050-0.119 0-0.181-0.744-1.563-0.95-1.756-0.488-0.469-1.094-0.537-1.819-0.194-0.794 0.381-1.169 0.938-1.088 1.625 0.050 0.387 0.737 1.738 1.006 1.975l0.194 0.169-0.163 0.338c-0.244 0.488-0.519 1.456-0.469 1.656 0.025 0.106 0.119 0.206 0.25 0.262 0.181 0.088 0.231 0.094 0.387 0.019 0.15-0.075 0.206-0.169 0.325-0.556 0.25-0.8 0.337-1.012 0.506-1.194 0.094-0.106 1.462-0.887 3.194-1.825 3.3-1.794 3.181-1.75 2.969-1.1-0.2 0.594-0.525 0.85-3 2.344-1.238 0.744-2.288 1.4-2.325 1.45-0.044 0.056-0.081 0.188-0.081 0.3 0 0.244 0.262 0.488 0.481 0.444 0.081-0.012 0.144 0.006 0.137 0.044 0 0.037-0.175 0.575-0.387 1.188l-0.387 1.125-1.025 0.425c-0.569 0.231-1.044 0.412-1.056 0.394-0.012-0.012 0.081-0.406 0.213-0.869 0.194-0.713 0.219-0.875 0.163-1.006-0.137-0.3-0.619-0.344-0.794-0.069-0.044 0.069-0.244 0.694-0.438 1.381-0.387 1.362-0.381 1.3-0.525 4.156l-0.056 1.156-1.012 2.125c-0.563 1.169-1.044 2.163-1.081 2.2-0.044 0.056-0.319 0.081-0.975 0.081-0.863 0-0.938 0.012-1.244 0.163-0.681 0.337-0.887 0.794-0.887 1.975v0.8l-0.162-0.063c-0.094-0.038-1.106-0.063-2.438-0.063-2.537 0-2.544 0-2.987 0.425-0.425 0.406-0.475 0.587-0.475 1.775v1.050h-0.656c-0.619 0-0.669 0.012-0.813 0.156-0.2 0.194-0.2 0.431 0 0.625l0.15 0.156h27.987l0.131-0.144c0.181-0.194 0.181-0.481-0.006-0.656-0.131-0.125-0.212-0.137-0.844-0.137h-0.7v-12.475l-0.163-0.325c-0.087-0.181-0.262-0.406-0.387-0.512-0.413-0.344-0.625-0.375-2.337-0.375h-1.55v-8.094l0.25-0.5c0.294-0.594 0.394-1.138 0.319-1.694-0.069-0.487-0.144-0.619-0.381-0.7-0.181-0.069-0.188-0.081-0.188-0.475v-0.412h2.875c3.219 0 3.206 0 3.4-0.406 0.2-0.412 0.094-0.6-0.775-1.35-0.569-0.494-0.731-0.663-0.669-0.712 0.044-0.038 0.381-0.325 0.75-0.65 0.769-0.669 0.887-0.887 0.706-1.262-0.194-0.412-0.081-0.4-3.331-0.419l-2.956-0.019v-0.206c0-0.338-0.35-0.563-0.675-0.431zM29 1.688c0 0.031-0.019 0.063-0.044 0.063-0.031 0-0.3 0.231-0.6 0.519-0.5 0.462-0.556 0.538-0.587 0.788l-0.038 0.275 0.65 0.619 0.65 0.613-2.469-0.013-2.469-0.019-0.019-1.375c-0.006-0.756 0-1.406 0.012-1.45 0.044-0.1 4.912-0.119 4.912-0.019zM17.681 7.662c0.206 0.263 0.694 1.256 0.694 1.412 0 0.219-0.163 0.412-0.5 0.581-0.344 0.175-0.6 0.2-0.781 0.069-0.069-0.050-0.275-0.394-0.462-0.775-0.381-0.775-0.387-0.906-0.038-1.175 0.45-0.344 0.875-0.388 1.087-0.112zM23.125 13.719v3.656h-0.169c-0.25 0-0.769 0.262-1 0.5-0.413 0.425-0.425 0.475-0.444 2.419-0.012 0.975-0.038 1.769-0.063 1.769s-0.15-0.031-0.275-0.063c-0.206-0.063-0.231-0.087-0.206-0.238 0.094-0.512 0.35-2.781 0.35-3.081 0.006-0.519-0.163-0.794-1.344-2.194l-1.031-1.225 1.125-3.375 1.169-0.706c0.644-0.387 1.313-0.8 1.481-0.906 0.175-0.113 0.331-0.206 0.363-0.206 0.025-0.006 0.044 1.637 0.044 3.65zM17.4 18.375c-0.337 1.863-0.431 2.25-0.556 2.438-0.087 0.119-0.825 1.106-1.644 2.188-1.3 1.725-1.7 2.188-1.7 1.95 0-0.038 0.425-0.956 0.938-2.044 1.081-2.275 1.006-1.956 1.131-4.438 0.037-0.794 0.088-1.444 0.113-1.456 0.188-0.087 2.106-0.869 2.112-0.863s-0.169 1.006-0.394 2.225zM19.469 17.35c0.856 1.012 0.906 1.087 0.906 1.406 0 0.238-0.256 2.462-0.344 2.975-0.031 0.169-0.069 0.206-0.188 0.206-0.087 0-0.156-0.006-0.156-0.019 0-0.006-0.069-0.644-0.15-1.419-0.1-0.975-0.175-1.469-0.25-1.613-0.069-0.125-0.262-0.313-0.5-0.462l-0.394-0.25 0.075-0.413c0.044-0.231 0.113-0.625 0.156-0.881 0.063-0.369 0.094-0.45 0.15-0.375 0.038 0.050 0.35 0.431 0.694 0.844zM27.206 18.381c0.075 0.038 0.188 0.131 0.244 0.206 0.1 0.125 0.113 0.55 0.113 6.3v6.175h-5.125v-1.444c0-1.7-0.031-1.806-0.481-1.806-0.125 0-0.256 0.050-0.331 0.125-0.119 0.119-0.125 0.206-0.125 1.625v1.5h-5.194l0.019-3.856c0.019-4.244 0-4.050 0.4-4.238 0.294-0.137 4.131-0.137 4.4 0 0.344 0.175 0.375 0.325 0.375 1.781 0 1.319 0 1.319 0.156 1.469 0.194 0.2 0.431 0.2 0.625 0l0.156-0.15v-7.331l0.425-0.425h2.106c1.425 0 2.144 0.025 2.238 0.069zM18.381 19.269c0.081 0.063 0.131 0.356 0.231 1.356 0.069 0.706 0.119 1.288 0.106 1.3-0.006 0.006-0.356 0.006-0.769 0l-0.756-0.019 0.306-0.406c0.331-0.438 0.425-0.719 0.6-1.706 0.063-0.331 0.125-0.606 0.144-0.606s0.081 0.038 0.137 0.081zM15.375 24.725v0.35l-0.2-0.044c-0.113-0.025-0.219-0.056-0.231-0.069-0.019-0.019 0.375-0.587 0.412-0.587 0.012 0 0.019 0.156 0.019 0.35zM15.194 26.119l0.181 0.181v4.762h-5.125v-2.319c0-2.406 0.006-2.481 0.275-2.694 0.119-0.1 0.338-0.113 2.306-0.113h2.181l0.181 0.181zM9.006 28.813c0.25 0.137 0.306 0.381 0.306 1.344v0.906h-5.125v-1.95l0.362-0.363h2.169c1.363 0 2.206 0.025 2.287 0.063z"></path>
</symbol>
<symbol id="icon-log-in" viewBox="0 0 24 24">
<path d="M15 4h4c0.276 0 0.525 0.111 0.707 0.293s0.293 0.431 0.293 0.707v14c0 0.276-0.111 0.525-0.293 0.707s-0.431 0.293-0.707 0.293h-4c-0.552 0-1 0.448-1 1s0.448 1 1 1h4c0.828 0 1.58-0.337 2.121-0.879s0.879-1.293 0.879-2.121v-14c0-0.828-0.337-1.58-0.879-2.121s-1.293-0.879-2.121-0.879h-4c-0.552 0-1 0.448-1 1s0.448 1 1 1zM12.586 11h-9.586c-0.552 0-1 0.448-1 1s0.448 1 1 1h9.586l-3.293 3.293c-0.391 0.391-0.391 1.024 0 1.414s1.024 0.391 1.414 0l5-5c0.096-0.096 0.168-0.206 0.217-0.324s0.076-0.247 0.076-0.383c0-0.13-0.025-0.261-0.076-0.383-0.049-0.118-0.121-0.228-0.217-0.324l-5-5c-0.391-0.391-1.024-0.391-1.414 0s-0.391 1.024 0 1.414z"></path>
</symbol>
<symbol id="icon-log-out" viewBox="0 0 24 24">
<path d="M9 20h-4c-0.276 0-0.525-0.111-0.707-0.293s-0.293-0.431-0.293-0.707v-14c0-0.276 0.111-0.525 0.293-0.707s0.431-0.293 0.707-0.293h4c0.552 0 1-0.448 1-1s-0.448-1-1-1h-4c-0.828 0-1.58 0.337-2.121 0.879s-0.879 1.293-0.879 2.121v14c0 0.828 0.337 1.58 0.879 2.121s1.293 0.879 2.121 0.879h4c0.552 0 1-0.448 1-1s-0.448-1-1-1zM18.586 11h-9.586c-0.552 0-1 0.448-1 1s0.448 1 1 1h9.586l-3.293 3.293c-0.391 0.391-0.391 1.024 0 1.414s1.024 0.391 1.414 0l5-5c0.092-0.092 0.166-0.202 0.217-0.324 0.15-0.362 0.078-0.795-0.217-1.090l-5-5c-0.391-0.391-1.024-0.391-1.414 0s-0.391 1.024 0 1.414z"></path>
</symbol>
<symbol id="icon-user2" viewBox="0 0 24 24">
<path d="M21 21v-2c0-1.38-0.561-2.632-1.464-3.536s-2.156-1.464-3.536-1.464h-8c-1.38 0-2.632 0.561-3.536 1.464s-1.464 2.156-1.464 3.536v2c0 0.552 0.448 1 1 1s1-0.448 1-1v-2c0-0.829 0.335-1.577 0.879-2.121s1.292-0.879 2.121-0.879h8c0.829 0 1.577 0.335 2.121 0.879s0.879 1.292 0.879 2.121v2c0 0.552 0.448 1 1 1s1-0.448 1-1zM17 7c0-1.38-0.561-2.632-1.464-3.536s-2.156-1.464-3.536-1.464-2.632 0.561-3.536 1.464-1.464 2.156-1.464 3.536 0.561 2.632 1.464 3.536 2.156 1.464 3.536 1.464 2.632-0.561 3.536-1.464 1.464-2.156 1.464-3.536zM15 7c0 0.829-0.335 1.577-0.879 2.121s-1.292 0.879-2.121 0.879-1.577-0.335-2.121-0.879-0.879-1.292-0.879-2.121 0.335-1.577 0.879-2.121 1.292-0.879 2.121-0.879 1.577 0.335 2.121 0.879 0.879 1.292 0.879 2.121z"></path>
</symbol>
<symbol id="icon-arrow-thick-left" viewBox="0 0 20 20">
<path d="M10 13h8v-6h-8v-5l-8 8 8 8v-5z"></path>
</symbol>
</defs>
</svg>
